PathFileType	4	(X/Y/Z)	C:/Users/opensim2020/Desktop/walking_exp_matlab/subject03_walking13_straight_04.trc	
DataRate	CameraRate	NumFrames	NumMarkers	Units	OrigDataRate	OrigDataStartFrame	OrigNumFrames	
100.00	100.00	9	46	mm	100.00	2337	200	
Frame#	Time	LFHD			RFHD			LBHD			RBHD			C7			T10			CLAV			STRN			RBAK			LSHO			LUPA			LELB			LFRM			LWRA			LWRB			LFIN			RSHO			RUPA			RELB			RFRM			RWRA			RWRB			RFIN			LASI			RASI			LPSI			RPSI			LTHI			LKNE			LTIB			LANK			LHEE			LTOE			RTHI			RKNE			RTIB			RANK			RHEE			RTOE			*39			*40			*41			*42			*43			*44			*45			
		X1	Y1	Z1	X2	Y2	Z2	X3	Y3	Z3	X4	Y4	Z4	X5	Y5	Z5	X6	Y6	Z6	X7	Y7	Z7	X8	Y8	Z8	X9	Y9	Z9	X10	Y10	Z10	X11	Y11	Z11	X12	Y12	Z12	X13	Y13	Z13	X14	Y14	Z14	X15	Y15	Z15	X16	Y16	Z16	X17	Y17	Z17	X18	Y18	Z18	X19	Y19	Z19	X20	Y20	Z20	X21	Y21	Z21	X22	Y22	Z22	X23	Y23	Z23	X24	Y24	Z24	X25	Y25	Z25	X26	Y26	Z26	X27	Y27	Z27	X28	Y28	Z28	X29	Y29	Z29	X30	Y30	Z30	X31	Y31	Z31	X32	Y32	Z32	X33	Y33	Z33	X34	Y34	Z34	X35	Y35	Z35	X36	Y36	Z36	X37	Y37	Z37	X38	Y38	Z38	X39	Y39	Z39	X40	Y40	Z40	X41	Y41	Z41	X42	Y42	Z42	X43	Y43	Z43	X44	Y44	Z44	X45	Y45	Z45	X46	Y46	Z46	

176	1.750	1488.18652	-771.78357	1595.02368	1356.49646	-751.45813	1594.67883	1505.53162	-640.16583	1570.70618	1375.63428	-624.27142	1568.77429	1453.65137	-584.74475	1397.98621	1458.99622	-572.75635	1078.14722	1447.52454	-706.83264	1325.13806	1449.53198	-763.36646	1165.76135	1360.97534	-535.62195	1212.75244	1606.75305	-666.27191	1360.65955	1679.92273	-633.41571	1164.27417	1694.06580	-618.09326	1041.72607	1701.04834	-607.70367	911.39148	1677.88330	-582.43964	790.57330	1731.75574	-570.49963	805.91888	1720.33276	-528.30365	726.88898	1290.81152	-650.75250	1345.30664	1216.00842	-708.33264	1134.42822	1207.63293	-765.42383	1038.06909	1222.48364	-852.20740	935.30328	1274.99792	-922.24817	875.64099	1227.01758	-909.46478	854.04865	1246.67346	-968.93457	816.04712	1564.21240	-760.77911	930.83051	1326.48462	-734.48676	920.94958	1534.82727	-592.51154	939.72076	1385.57605	-578.29761	947.46552	1625.79749	-782.53131	637.40594	1587.03308	-839.97101	473.87576	1600.30359	-844.81189	276.91116	1577.13428	-891.51941	70.15805	1542.41125	-854.35394	32.68976	1535.37268	-1042.10840	43.00648	1293.10706	-640.94928	631.39624	1326.02625	-620.08118	451.56717	1324.34619	-493.07556	300.22290	1371.35864	-362.89819	127.29305	1421.10461	-308.81564	119.30811	1393.93481	-474.08688	35.73214	1445.28381	-690.97784	1664.11841																		 
177	1.760	1488.55811	-783.33435	1595.96362	1356.87354	-762.41858	1595.43201	1506.50146	-651.87061	1571.21436	1376.62500	-635.51862	1569.11584	1455.09534	-596.66736	1398.26782	1459.60291	-585.70624	1078.29541	1448.38013	-718.94812	1325.78296	1450.07373	-776.03430	1166.60913	1362.81421	-547.65955	1212.55505	1607.78076	-678.86450	1361.00049	1681.08704	-646.84204	1164.50598	1695.01563	-630.43451	1041.88550	1702.58911	-620.41486	911.80151	1679.73181	-594.56439	790.97369	1733.71240	-583.02264	806.42578	1722.59705	-540.07465	727.80286	1291.68030	-662.15955	1345.50232	1217.34961	-718.55017	1134.19495	1208.97009	-775.22314	1037.51013	1223.96973	-862.17615	935.06842	1276.22437	-932.89227	876.50916	1228.81409	-919.36188	853.83966	1248.27246	-979.98511	817.11542	1564.92969	-774.25922	932.57776	1327.93237	-747.76550	920.25409	1535.95020	-606.06635	940.91687	1386.43811	-591.76672	947.22974	1626.01978	-797.83429	640.76508	1587.85278	-853.32916	476.76126	1601.88794	-856.57990	278.65686	1576.57593	-894.66595	70.46709	1542.58716	-855.78882	33.86646	1538.13123	-1045.83972	40.68217	1293.85376	-655.95343	630.26758	1324.89001	-636.70709	450.26300	1324.47144	-504.67856	302.92892	1371.71362	-369.57678	134.47504	1422.32129	-316.30240	129.18520	1394.23059	-475.05673	35.69454	1445.73364	-701.78418	1664.64429																		 
178	1.770	1488.92969	-794.85895	1597.17371	1357.39514	-773.50690	1596.59033	1507.43091	-663.63934	1571.99988	1377.77075	-646.59290	1569.88843	1456.74170	-608.30688	1399.14954	1460.56958	-598.07178	1079.21533	1449.12988	-730.88855	1326.78674	1450.67664	-788.59253	1167.86365	1364.45276	-559.55164	1212.82288	1608.71399	-691.43756	1361.71411	1682.14563	-660.50696	1164.97156	1696.17053	-644.21204	1042.56982	1704.03259	-633.80396	912.46765	1681.45532	-607.87531	791.72809	1735.41663	-596.54895	807.13287	1724.91833	-553.40027	728.57556	1292.47729	-673.17487	1346.16370	1218.77075	-728.65259	1134.22290	1210.48560	-784.91925	1037.26904	1225.49524	-871.72754	934.71362	1277.53003	-942.62006	876.63269	1230.53345	-928.74384	853.40533	1249.76843	-989.78418	817.71844	1565.84961	-787.61108	934.62451	1329.07300	-761.27759	919.94720	1536.95862	-619.10156	942.84393	1387.17078	-605.11774	947.08643	1626.88843	-811.36353	643.75146	1588.10730	-868.01764	480.00583	1603.10217	-867.13464	280.12033	1575.12610	-895.30200	70.76466	1542.01038	-856.33069	34.26453	1537.77795	-1047.14465	39.59630	1294.26880	-671.65973	629.22681	1323.33154	-654.59546	448.96198	1324.10693	-517.57959	306.11191	1372.14014	-377.98218	142.15941	1423.86536	-325.66071	140.21457	1394.29382	-476.41019	35.84089	1448.50220	-715.18518	1669.73755																		 
179	1.780	1489.27380	-806.30951	1598.44250	1357.83691	-784.53223	1597.80725	1508.38782	-675.17700	1573.11255	1378.75977	-657.77588	1570.77344	1457.96399	-620.27429	1400.06750	1461.06873	-610.72345	1079.76001	1449.78528	-742.71893	1327.99365	1451.17627	-800.91071	1169.22034	1366.02930	-571.50226	1213.40186	1609.52356	-703.79962	1362.74695	1683.07104	-674.17279	1165.78577	1697.24939	-657.95404	1043.49805	1705.26428	-647.83801	913.42694	1683.03833	-621.76862	792.52875	1737.07947	-611.01508	808.01660	1727.26941	-568.34027	729.24219	1293.31958	-684.28735	1347.25586	1220.26770	-738.70770	1134.60559	1212.13562	-794.42810	1037.30896	1226.95581	-880.77863	934.34631	1278.75085	-951.81421	876.49310	1232.12537	-937.41931	852.83142	1251.06592	-998.70844	817.78302	1566.64270	-800.59460	936.77545	1330.56616	-774.33020	920.23444	1537.46411	-632.42291	944.64148	1387.71423	-618.14282	947.31409	1628.66785	-823.65112	646.09326	1588.12830	-882.78003	482.33722	1603.85791	-876.31958	281.61429	1574.89343	-895.78979	71.45815	1542.36169	-856.52881	34.52421	1535.08264	-1047.60461	38.62577	1294.62732	-688.08472	628.27551	1321.54163	-673.94513	447.96756	1323.86365	-532.23230	309.78058	1373.05798	-387.94299	150.74472	1425.87549	-337.75436	151.85112	1394.40759	-477.54642	36.07656	1448.75671	-726.24011	1671.17627																		 
180	1.790	1489.61890	-817.70013	1599.64929	1358.27014	-795.38715	1598.97241	1509.28259	-686.68695	1574.22009	1379.80823	-668.72321	1571.97937	1458.94971	-632.08282	1401.02136	1461.70837	-622.87158	1080.75964	1450.42407	-754.71625	1329.26917	1451.59924	-813.24524	1170.58118	1367.24438	-583.12335	1214.38159	1610.25525	-716.09442	1364.02429	1683.94214	-687.89325	1166.96692	1698.61438	-672.19678	1044.82129	1706.34021	-662.49976	914.56738	1684.39783	-636.90710	793.73975	1738.54944	-626.46075	809.14655	1729.52869	-584.79980	729.79364	1294.12634	-695.50214	1348.50549	1221.79529	-748.87939	1135.26770	1213.83936	-803.72418	1037.57593	1228.29590	-889.03735	933.79950	1279.92578	-960.31348	876.00311	1233.61279	-945.46906	852.03186	1252.09119	-1006.95502	817.39856	1567.32556	-813.39569	939.15802	1332.17773	-787.16425	920.86261	1537.74976	-645.05511	946.64050	1388.01245	-630.85089	947.70990	1630.04443	-835.59766	647.60510	1588.46631	-895.95905	483.34604	1604.45752	-883.99573	282.71497	1574.39685	-896.46918	71.59296	1542.47266	-856.66309	34.74342	1535.58801	-1048.37134	38.00969	1294.70044	-704.75275	627.30066	1320.10327	-694.83301	446.99231	1323.60449	-548.89417	313.68042	1373.78345	-400.86377	159.20726	1427.71753	-352.34988	163.52701	1394.89746	-479.50134	36.75932																					 
181	1.800	1489.97681	-829.01038	1600.81055	1358.67664	-806.28302	1600.18164	1510.12061	-698.14136	1575.24548	1380.67126	-679.61572	1573.01086	1459.71765	-644.13879	1401.88513	1462.51941	-634.81104	1081.73755	1450.92603	-766.69092	1330.50464	1451.92859	-825.49963	1171.86108	1368.10120	-594.92743	1215.24207	1610.76563	-728.42065	1365.46350	1684.88501	-701.53223	1168.38745	1699.53809	-686.50085	1046.18945	1707.23145	-677.81989	915.88324	1685.43445	-652.64703	794.81177	1739.82446	-642.85193	810.27075	1731.58691	-602.76306	730.23761	1294.95276	-706.58246	1349.93933	1223.26208	-758.90369	1136.05139	1215.56396	-812.85236	1037.95288	1229.75537	-897.53400	933.52197	1280.99036	-968.35321	875.26886	1234.89417	-952.94482	851.16711	1252.84375	-1014.70416	816.50122	1568.03674	-826.01294	941.43158	1333.91919	-799.95056	922.07294	1537.97034	-657.26953	948.47382	1388.43738	-643.15778	948.16809	1631.28174	-847.35132	648.36688	1589.68640	-906.50616	483.56644	1605.51794	-889.89069	283.02524	1574.54517	-896.73175	71.79648	1542.42041	-856.75116	34.92379	1535.68921	-1048.88159	37.63117	1294.96375	-722.16528	626.46899	1319.17773	-716.73376	446.01776	1323.44727	-567.52747	317.20016	1373.93689	-416.18588	166.37720	1429.09766	-369.30936	174.78246	1396.33167	-481.42880	37.06100	1449.87231	-748.83594	1673.48413																		 
182	1.810	1490.27771	-840.17902	1601.91394	1359.14795	-817.04944	1601.36548	1510.92236	-709.39294	1576.15613	1381.55835	-690.46472	1573.96716	1460.78027	-655.53589	1402.76709	1463.51331	-646.69489	1082.70361	1451.32996	-778.54187	1331.56897	1452.14624	-837.56635	1173.12256	1368.90369	-606.42615	1216.40833	1611.17358	-740.67719	1366.87109	1685.77332	-715.06549	1169.93311	1700.31213	-701.14929	1047.53552	1708.22791	-693.70514	917.31604	1686.62317	-669.47559	796.14905	1740.98987	-659.97284	811.40955	1733.47607	-621.89380	730.49060	1295.76563	-717.60675	1351.37354	1224.59277	-768.99255	1137.04724	1217.30261	-821.81042	1038.39563	1231.05676	-905.38196	933.01001	1281.99646	-975.90747	874.13812	1236.10986	-959.79163	850.00287	1253.55420	-1021.52246	814.92999	1568.70166	-837.94568	943.33075	1335.02612	-811.60126	923.09515	1538.34558	-669.19220	950.21375	1388.95581	-654.79602	948.67719	1632.61182	-857.85498	648.51483	1591.52600	-914.55573	483.16144	1606.42944	-894.03473	282.68069	1574.39722	-896.94562	71.58201	1542.46619	-856.62775	34.96741	1535.45239	-1048.86011	37.37800	1295.11243	-739.46521	625.40082	1318.91235	-739.02972	445.08099	1323.57996	-587.67554	320.20633	1373.60461	-433.05359	172.70296	1429.28381	-387.75485	185.88065	1397.93164	-484.34750	38.13280	1451.68823	-759.94702	1671.71643																		 
183	1.820	1490.53113	-851.21814	1603.00220	1359.48035	-827.55811	1602.59802	1511.61377	-720.56189	1576.91870	1382.32788	-701.17407	1574.89331	1461.61926	-666.81274	1403.39429	1464.44019	-658.44800	1083.70435	1451.61731	-790.23285	1332.66626	1452.21484	-849.32117	1174.20728	1369.46594	-618.83936	1217.04797	1611.51074	-752.91687	1368.25403	1686.75964	-728.53845	1171.50269	1701.43555	-716.22223	1048.95093	1709.05322	-709.93475	918.58972	1687.54041	-686.68506	797.30145	1741.98425	-677.74664	812.39594	1735.28430	-642.24188	730.55432	1296.45239	-728.76117	1352.67151	1225.85242	-778.84595	1137.91797	1218.86450	-830.50574	1038.74744	1232.18835	-912.93823	932.41229	1282.79614	-983.22388	872.79260	1237.05029	-966.46533	848.74097	1254.20081	-1027.64807	812.81561	1569.24182	-849.56512	944.97266	1335.45923	-823.00409	924.14240	1538.79956	-681.00085	951.62262	1389.69861	-666.17053	949.06775	1633.98438	-866.52466	648.84674	1593.50378	-920.96271	482.28900	1607.71008	-897.13702	282.35580	1574.45337	-896.83191	71.78245	1542.56506	-856.49371	35.02951	1535.69275	-1049.10193	37.33789	1295.26038	-756.38574	624.13049	1319.12988	-761.37286	444.14246	1324.01733	-609.18726	322.35901	1372.91736	-451.67374	178.02097	1427.99451	-406.83530	196.77530	1399.54309	-490.80923	41.60492																					 
184	1.830	1490.72388	-862.21277	1604.13782	1359.74878	-838.04047	1603.78418	1512.22900	-731.70898	1577.66089	1383.11169	-711.81335	1575.72058	1462.34009	-678.49628	1404.34424	1465.55286	-669.77368	1084.99658	1451.77417	-801.71143	1333.62927	1451.94043	-860.73810	1175.12585	1370.21875	-629.90002	1218.19043	1611.74524	-765.24475	1369.57373	1687.68091	-742.14172	1172.92139	1702.44250	-731.24451	1050.23279	1709.54651	-726.46124	919.61517	1688.28271	-704.83862	798.37421	1742.84204	-696.24457	813.24152	1736.83472	-663.63300	730.49463	1297.17725	-739.38159	1353.90540	1226.99744	-788.36383	1138.56653	1220.14771	-839.01587	1038.91968	1232.99976	-920.08759	931.51495	1283.34753	-990.13123	870.92041	1237.74438	-972.70288	847.16382	1254.60315	-1033.31848	810.04150	1569.53650	-861.29803	946.39362	1335.63110	-834.12195	925.27716	1539.39709	-692.70978	952.80878	1390.48035	-677.10138	949.37280	1635.17957	-873.62408	649.20160	1595.32788	-926.42932	481.39581	1608.49512	-899.96344	282.22678	1574.48279	-896.99506	71.76194	1542.53003	-856.44006	35.21600	1535.62988	-1049.19556	37.16591	1295.71716	-773.27594	623.08557	1319.64429	-783.49219	443.38293	1323.96497	-631.78815	323.25827	1372.76624	-470.19263	184.01183	1427.08545	-425.88873	206.95543	1400.38196	-501.30838	46.80058	1450.51843	-779.28601	1671.93848																		 
